#N canvas 448 101 864 580 12;
#X text 385 333 decay time;
#X msg 319 326 0;
#X obj 319 301 del;
#X obj 303 260 t f f;
#X obj 258 415 line~;
#X text 346 231 attack time;
#X text 349 259 must modify delay time corresponding to attack time
;
#X obj 258 479 outlet~;
#X obj 242 22 inlet;
#X text 291 24 midi note;
#X text 268 86 attack time;
#X text 390 150 decay time;
#X obj 242 354 pack f f;
#X obj 319 352 pack f f;
#X obj 303 66 inlet;
#X obj 290 174 \$1;
#X obj 313 199 \$2;
#X msg 242 328 1;
#X obj 244 140 t b b b b b;
#X obj 391 103 inlet;
#X obj 166 57 t b b;
#X obj 153 102 del 100;
#X msg 209 101 0 100;
#X connect 1 0 13 0;
#X connect 2 0 1 0;
#X connect 3 0 12 1;
#X connect 3 1 2 1;
#X connect 4 0 7 0;
#X connect 8 0 20 0;
#X connect 12 0 4 0;
#X connect 13 0 4 0;
#X connect 14 0 3 0;
#X connect 15 0 3 0;
#X connect 16 0 13 1;
#X connect 17 0 12 0;
#X connect 18 0 17 0;
#X connect 18 1 2 0;
#X connect 18 2 15 0;
#X connect 18 3 16 0;
#X connect 19 0 16 1;
#X connect 20 0 21 0;
#X connect 20 1 22 0;
#X connect 21 0 18 0;
#X connect 22 0 4 0;
