#N canvas 0 23 853 583 10;
#X obj 341 142 inlet;
#X obj 314 259 outlet;
#X obj 398 258 outlet;
#X obj 353 163 f;
#X obj 353 185 + 1;
#X obj 353 207 mod 2;
#X obj 353 231 sel 0 1;
#X msg 386 137 0;
#X obj 386 116 r reset;
#X connect 0 0 3 0;
#X connect 3 0 4 0;
#X connect 4 0 3 1;
#X connect 4 0 5 0;
#X connect 5 0 6 0;
#X connect 6 0 1 0;
#X connect 6 1 2 0;
#X connect 7 0 3 1;
#X connect 8 0 7 0;
