#N canvas 361 37 815 474 10;
#X text 562 251 calculate millisecs in each 'bar';
#X obj 228 85 f;
#X obj 228 107 + 1;
#X msg 256 85 0;
#X text 445 24 Global Timebase;
#X obj 347 19 inlet;
#X obj 228 63 metro 130;
#X msg 366 374 32;
#X obj 366 394 * 130;
#X obj 421 394 * 130;
#X msg 421 374 16;
#X obj 478 393 * 130;
#X msg 478 373 8;
#X obj 530 393 * 130;
#X msg 530 373 4;
#X obj 308 395 * 130;
#X msg 308 375 64;
#X text 474 438 calculate millisecs in each 'bar';
#X obj 118 67 bng 30 250 50 0 \$1whatms empty WHATMS 4 -5 0 10 -33289
-4032 -1;
#X obj 54 30 loadbang;
#X obj 194 32 inlet;
#X msg 581 374 2;
#X obj 581 394 * 130;
#X obj 640 393 f;
#X obj 347 41 t f f;
#X msg 725 371 3;
#X obj 725 393 * 130;
#X obj 532 296 t b f f f f f f f f;
#X obj 445 324 t b b b b b b b b;
#X obj 228 137 mod 48;
#X obj 316 196 s \$1timebase48;
#X obj 31 90 s \$1whatms;
#X obj 445 295 r \$1whatms;
#X obj 308 415 s \$1ms64;
#X obj 366 414 s \$1ms32;
#X obj 421 414 s \$1ms16;
#X obj 478 413 s \$1ms8;
#X obj 530 413 s \$1ms4;
#X obj 581 414 s \$1ms2;
#X obj 640 413 s \$1ms;
#X obj 725 415 s \$1ms3;
#X obj 221 320 sel 0;
#X obj 171 246 mod 12;
#X obj 171 268 sel 0;
#X obj 171 290 f;
#X obj 171 312 + 1;
#X obj 171 334 mod 4;
#X obj 171 375 + 1;
#X obj 96 284 sel 0;
#X obj 96 306 f;
#X obj 96 328 + 1;
#X msg 123 307 0;
#X msg 198 291 0;
#X obj 120 397 mod 2;
#X obj 120 419 sel 0;
#X obj 228 163 t f f;
#X obj 102 196 t b f f f f f;
#X obj 171 397 s \$1beats;
#X obj 37 444 s \$1bars;
#X obj 120 441 s \$1whatms;
#X obj 25 229 s \$1ticks;
#X obj 18 345 mod 48;
#X obj 18 367 sel 0;
#X obj 80 364 t f f f;
#X obj 18 389 s \$1resetBars;
#X obj 99 227 r \$1resetBars;
#X obj 171 354 t f f;
#X connect 1 0 2 0;
#X connect 2 0 1 1;
#X connect 2 0 29 0;
#X connect 3 0 1 1;
#X connect 5 0 24 0;
#X connect 6 0 1 0;
#X connect 7 0 8 0;
#X connect 8 0 34 0;
#X connect 9 0 35 0;
#X connect 10 0 9 0;
#X connect 11 0 36 0;
#X connect 12 0 11 0;
#X connect 13 0 37 0;
#X connect 14 0 13 0;
#X connect 15 0 33 0;
#X connect 16 0 15 0;
#X connect 19 0 31 0;
#X connect 20 0 6 0;
#X connect 21 0 22 0;
#X connect 22 0 38 0;
#X connect 23 0 39 0;
#X connect 24 0 6 1;
#X connect 24 1 27 0;
#X connect 25 0 26 0;
#X connect 26 0 40 0;
#X connect 27 0 28 0;
#X connect 27 1 15 1;
#X connect 27 2 8 1;
#X connect 27 3 9 1;
#X connect 27 4 11 1;
#X connect 27 5 13 1;
#X connect 27 6 22 1;
#X connect 27 7 23 1;
#X connect 27 8 26 1;
#X connect 28 0 16 0;
#X connect 28 1 7 0;
#X connect 28 2 10 0;
#X connect 28 3 12 0;
#X connect 28 4 14 0;
#X connect 28 5 21 0;
#X connect 28 6 23 0;
#X connect 28 7 25 0;
#X connect 29 0 55 0;
#X connect 32 0 28 0;
#X connect 41 0 52 0;
#X connect 42 0 43 0;
#X connect 43 0 44 0;
#X connect 44 0 45 0;
#X connect 45 0 44 1;
#X connect 45 0 46 0;
#X connect 46 0 66 0;
#X connect 47 0 57 0;
#X connect 48 0 49 0;
#X connect 49 0 50 0;
#X connect 50 0 49 1;
#X connect 50 0 63 0;
#X connect 51 0 49 1;
#X connect 52 0 44 1;
#X connect 53 0 54 0;
#X connect 54 0 59 0;
#X connect 55 0 56 0;
#X connect 55 1 30 0;
#X connect 56 0 60 0;
#X connect 56 4 48 0;
#X connect 56 5 42 0;
#X connect 61 0 62 0;
#X connect 62 0 64 0;
#X connect 63 0 61 0;
#X connect 63 1 58 0;
#X connect 63 2 53 0;
#X connect 65 0 51 0;
#X connect 66 0 47 0;
#X connect 66 1 41 0;
