#N canvas 260 151 637 409 10;
#X obj 268 223 f;
#X obj 268 244 + 1;
#X obj 268 265 t f f f;
#X msg 295 223 0;
#X obj 246 287 outlet;
#X obj 325 190 inlet max;
#X obj 292 288 sel \$1;
#X obj 244 191 inlet bang;
#X obj 327 160 r reset;
#X obj 389 190 inlet reset;
#X connect 0 0 1 0;
#X connect 1 0 2 0;
#X connect 2 0 4 0;
#X connect 2 1 6 0;
#X connect 2 2 0 1;
#X connect 3 0 0 1;
#X connect 5 0 6 1;
#X connect 6 0 3 0;
#X connect 7 0 0 0;
#X connect 8 0 3 0;
#X connect 9 0 3 0;
