#N canvas 0 23 2243 1454 10;
#X obj 430 446 dac~;
#X obj 505 306 vsl 15 80 0 1 0 1 empty empty empty 0 -9 0 10 -1 -4160
-1 7900 1;
#X obj 414 417 *~ 1;
#X obj 460 417 *~ 1;
#N canvas 909 152 2816 1684 workings 0;
#X obj 1364 123 EP_timebase inter;
#X obj 1364 100 tgl 15 0 empty empty empty 17 7 0 10 -262144 -1 -1
0 1;
#X obj 1370 41 loadbang;
#X obj 1370 65 t b b b b b;
#X msg 1491 94 \; pd dsp 1 \;;
#X obj 1398 95 sampleLoader;
#X obj 1363 10 bng 15 250 50 0 empty empty empty 17 7 0 10 -262144
-1 -1;
#X obj 690 747 pianoFX;
#N canvas 3 23 1626 779 randomScaleGenerator 0;
#X obj 159 178 c_urn 12;
#X msg 171 143 clear;
#X obj 212 205 bng 15 250 50 0 empty empty empty 17 7 0 10 -262144
-1 -1;
#X obj 39 332 route 1 2 3 4 5;
#X obj 39 275 EPcount 5;
#X obj 39 304 pack f f;
#X obj 18 402 pack f f f f f;
#X msg 92 452 set \$1 \$2 \$3 \$4 \$5;
#X obj 70 111 until;
#X msg 70 85 5;
#X obj 46 132 bng 15 250 50 0 empty empty empty 17 7 0 10 -262144 -1
-1;
#X obj 70 135 t b b b;
#X obj 18 426 t b a;
#X obj 50 476 unpack f f f f f;
#X obj 653 689 outlet;
#X obj 707 689 outlet;
#X obj 756 689 outlet;
#X obj 810 689 outlet;
#X obj 861 689 outlet;
#X msg 382 192 0 2 3 5 6 8 9 11;
#X msg 507 192 0 1 3 4 6 7 9 10;
#X obj 439 149 alternate;
#X obj 338 227 listSerialise;
#X obj 290 282 pack f f;
#X obj 269 380 pack f f f f f;
#X msg 343 430 set \$1 \$2 \$3 \$4 \$5;
#X obj 269 404 t b a;
#X obj 301 454 unpack f f f f f;
#X msg 343 490 6 5 2 3 0;
#X obj 295 157 until;
#X msg 295 131 5;
#X obj 271 178 bng 15 250 50 0 empty empty empty 17 7 0 10 -262144
-1 -1;
#X obj 295 181 t b b b;
#X obj 343 103 t b b;
#X obj 317 81 bng 15 250 50 0 empty empty empty 17 7 0 10 -262144 -1
-1;
#X obj 290 310 route 0 1 2 3 4;
#X obj 290 253 c_urn 5;
#X obj 401 286 bng 15 250 50 0 empty empty empty 17 7 0 10 -262144
-1 -1;
#X msg 270 226 clear;
#X text 90 37 random 12-note;
#X text 351 46 random octatonic symmetric;
#X obj 719 255 listSerialise;
#X obj 646 319 pack f f;
#X obj 650 408 pack f f f f f;
#X msg 724 458 set \$1 \$2 \$3 \$4 \$5;
#X obj 650 432 t b a;
#X obj 682 482 unpack f f f f f;
#X msg 726 508 3 5 0 10 7;
#X obj 676 185 until;
#X msg 676 159 5;
#X obj 652 206 bng 15 250 50 0 empty empty empty 17 7 0 10 -262144
-1 -1;
#X obj 676 209 t b b b;
#X obj 698 109 bng 15 250 50 0 empty empty empty 17 7 0 10 -262144
-1 -1;
#X obj 646 347 route 0 1 2 3 4;
#X obj 646 290 c_urn 5;
#X msg 631 250 clear;
#X msg 836 176 0 2 5 7 9;
#X msg 850 202 0 3 5 7 10;
#X msg 864 228 0 2 4 7 9;
#X msg 884 253 0 2 5 7 10;
#X msg 901 280 0 3 5 8 10;
#X obj 836 128 random 5;
#X obj 836 152 sel 0 1 2 3 4;
#X obj 724 131 t b b b;
#X obj 277 353 f;
#X obj 218 286 EPcount 5;
#X obj 218 310 sel 5;
#X obj 567 360 EPcount 5;
#X obj 567 384 sel 5;
#X obj 649 381 f;
#X text 672 58 random pentatonic;
#X obj 1106 284 listSerialise;
#X obj 1033 348 pack f f;
#X obj 1037 437 pack f f f f f;
#X msg 1111 487 set \$1 \$2 \$3 \$4 \$5;
#X obj 1037 461 t b a;
#X obj 1069 511 unpack f f f f f;
#X msg 1113 537 7 5 4 2 0;
#X obj 1063 214 until;
#X msg 1063 188 5;
#X obj 1039 235 bng 15 250 50 0 empty empty empty 17 7 0 10 -262144
-1 -1;
#X obj 1063 238 t b b b;
#X obj 1037 129 bng 15 250 50 0 empty empty empty 17 7 0 10 -262144
-1 -1;
#X obj 1033 376 route 0 1 2 3 4;
#X obj 1033 319 c_urn 5;
#X msg 1018 279 clear;
#X obj 1063 151 t b b b;
#X obj 954 389 EPcount 5;
#X obj 954 413 sel 5;
#X obj 1036 403 f;
#N canvas 0 23 1221 630 scales 0;
#X text 470 98 major scale;
#X text 960 336 harmonic minor;
#X text 799 248 natural minor (aeolian);
#X text 593 153 phrygian;
#X text 734 217 mixolydian;
#X obj 659 513 s majorMinor;
#X msg 640 475 1;
#X obj 359 123 t l b;
#X obj 605 241 t l b;
#X msg 685 475 0;
#X obj 852 361 t l b;
#X obj 690 271 t l b;
#X obj 462 177 t l b;
#X obj 416 151 t l b;
#X text 543 126 dorian;
#X msg 605 218 0 2 4 5 7 9 10 12;
#X msg 415 127 0 2 3 5 7 9 10 12;
#X msg 462 155 0 1 3 5 7 8 10 12;
#X msg 359 99 0 2 4 5 7 9 11;
#X msg 852 337 0 2 3 5 7 8 11;
#X msg 690 247 0 2 3 5 7 8 10;
#X msg 531 194 0 2 4 6 7 9 11;
#X text 640 193 lydian;
#X obj 531 218 t l b;
#X msg 760 274 0 1 3 5 6 8 10;
#X obj 760 298 t l b;
#X text 869 273 locrian;
#X msg 908 375 0 2 3 5 7 8 10;
#X text 1014 375 melodic minor (descent);
#X obj 908 399 t l b;
#X obj 403 12 inlet;
#X obj 403 36 sel 0 1 2 3 4 5 6 7 8 9;
#X text 17 122 1 = dorian;
#X text 17 145 2 = phrygian;
#X text 18 169 3 = lydian;
#X text 18 192 4 = mixolydian;
#X text 19 217 5 = aeolian (natural minor);
#X text 20 241 6 = locrian;
#X text 21 269 7 = harmonic minor;
#X text 20 296 8 = melodic minor (descent);
#X text 17 100 0 = ionian (major);
#X obj 221 531 outlet;
#X connect 6 0 5 0;
#X connect 7 0 41 0;
#X connect 7 1 6 0;
#X connect 8 0 41 0;
#X connect 8 1 6 0;
#X connect 9 0 5 0;
#X connect 10 0 41 0;
#X connect 10 1 9 0;
#X connect 11 0 41 0;
#X connect 11 1 9 0;
#X connect 12 0 41 0;
#X connect 12 1 9 0;
#X connect 13 0 41 0;
#X connect 13 1 9 0;
#X connect 15 0 8 0;
#X connect 16 0 13 0;
#X connect 17 0 12 0;
#X connect 18 0 7 0;
#X connect 19 0 10 0;
#X connect 20 0 11 0;
#X connect 21 0 23 0;
#X connect 23 0 41 0;
#X connect 23 1 6 0;
#X connect 24 0 25 0;
#X connect 25 0 41 0;
#X connect 25 1 9 0;
#X connect 27 0 29 0;
#X connect 29 0 41 0;
#X connect 29 1 9 0;
#X connect 30 0 31 0;
#X connect 31 0 18 0;
#X connect 31 1 16 0;
#X connect 31 2 17 0;
#X connect 31 3 21 0;
#X connect 31 4 15 0;
#X connect 31 5 20 0;
#X connect 31 6 24 0;
#X connect 31 7 19 0;
#X connect 31 8 27 0;
#X restore 1194 190 pd scales;
#X obj 48 33 inlet;
#X obj 310 47 inlet;
#X obj 627 57 inlet;
#X obj 1063 70 inlet;
#X obj 1063 94 t b f;
#X text 1107 69 piano scales;
#X msg 1353 127 0 5 10;
#X msg 1460 160 0 7;
#X text 1425 55 quintal;
#X obj 1348 291 listSerialise;
#X obj 1275 355 pack f f;
#X obj 1279 444 pack f f f f f;
#X msg 1353 494 set \$1 \$2 \$3 \$4 \$5;
#X obj 1279 468 t b a;
#X obj 1311 518 unpack f f f f f;
#X msg 1355 544 5 0 5 0 10;
#X obj 1305 221 until;
#X msg 1305 195 5;
#X obj 1281 242 bng 15 250 50 0 empty empty empty 17 7 0 10 -262144
-1 -1;
#X obj 1305 245 t b b b;
#X obj 1279 136 bng 15 250 50 0 empty empty empty 17 7 0 10 -262144
-1 -1;
#X obj 1275 383 route 0 1 2 3 4;
#X obj 1275 326 c_urn 5;
#X msg 1260 286 clear;
#X obj 1305 158 t b b b;
#X obj 1196 396 EPcount 5;
#X obj 1196 420 sel 5;
#X obj 1278 410 f;
#X obj 1305 77 inlet;
#X text 1298 54 quartal;
#X obj 1430 78 inlet;
#X obj 1477 127 s keyNoteTrig;
#X obj 1430 102 t b b b;
#X obj 1305 101 t b b b;
#X connect 0 0 5 1;
#X connect 0 1 2 0;
#X connect 1 0 0 0;
#X connect 3 0 6 4;
#X connect 3 1 6 3;
#X connect 3 2 6 2;
#X connect 3 3 6 1;
#X connect 3 4 6 0;
#X connect 4 0 5 0;
#X connect 5 0 3 0;
#X connect 6 0 12 0;
#X connect 8 0 11 0;
#X connect 9 0 8 0;
#X connect 10 0 11 0;
#X connect 11 0 4 0;
#X connect 11 1 0 0;
#X connect 12 0 1 0;
#X connect 12 1 7 0;
#X connect 12 1 13 0;
#X connect 13 0 14 0;
#X connect 13 1 15 0;
#X connect 13 2 16 0;
#X connect 13 3 17 0;
#X connect 13 4 18 0;
#X connect 19 0 22 1;
#X connect 20 0 22 1;
#X connect 21 0 19 0;
#X connect 21 1 20 0;
#X connect 22 0 23 1;
#X connect 23 0 35 0;
#X connect 24 0 26 0;
#X connect 25 0 28 0;
#X connect 26 0 38 0;
#X connect 26 1 25 0;
#X connect 26 1 27 0;
#X connect 27 0 14 0;
#X connect 27 1 15 0;
#X connect 27 2 16 0;
#X connect 27 3 17 0;
#X connect 27 4 18 0;
#X connect 29 0 32 0;
#X connect 30 0 29 0;
#X connect 31 0 32 0;
#X connect 32 0 65 0;
#X connect 32 1 36 0;
#X connect 32 2 22 0;
#X connect 33 0 30 0;
#X connect 33 1 21 0;
#X connect 34 0 33 0;
#X connect 35 0 24 4;
#X connect 35 1 24 3;
#X connect 35 2 24 2;
#X connect 35 3 24 1;
#X connect 35 4 64 1;
#X connect 36 0 23 0;
#X connect 36 1 37 0;
#X connect 38 0 36 0;
#X connect 41 0 42 1;
#X connect 42 0 53 0;
#X connect 43 0 45 0;
#X connect 44 0 47 0;
#X connect 45 0 55 0;
#X connect 45 1 44 0;
#X connect 45 1 46 0;
#X connect 46 0 14 0;
#X connect 46 1 15 0;
#X connect 46 2 16 0;
#X connect 46 3 17 0;
#X connect 46 4 18 0;
#X connect 48 0 51 0;
#X connect 49 0 48 0;
#X connect 50 0 51 0;
#X connect 51 0 67 0;
#X connect 51 1 54 0;
#X connect 51 2 41 0;
#X connect 52 0 63 0;
#X connect 53 0 43 4;
#X connect 53 1 43 3;
#X connect 53 2 43 2;
#X connect 53 3 43 1;
#X connect 53 4 69 1;
#X connect 54 0 42 0;
#X connect 55 0 54 0;
#X connect 56 0 41 1;
#X connect 57 0 41 1;
#X connect 58 0 41 1;
#X connect 59 0 41 1;
#X connect 60 0 41 1;
#X connect 61 0 62 0;
#X connect 62 0 56 0;
#X connect 62 1 57 0;
#X connect 62 2 58 0;
#X connect 62 3 59 0;
#X connect 62 4 60 0;
#X connect 63 0 49 0;
#X connect 63 1 61 0;
#X connect 64 0 24 0;
#X connect 65 0 66 0;
#X connect 66 0 64 0;
#X connect 67 0 68 0;
#X connect 68 0 69 0;
#X connect 69 0 43 0;
#X connect 71 0 72 1;
#X connect 72 0 83 0;
#X connect 73 0 75 0;
#X connect 74 0 77 0;
#X connect 75 0 85 0;
#X connect 75 1 74 0;
#X connect 75 1 76 0;
#X connect 76 0 14 0;
#X connect 76 1 15 0;
#X connect 76 2 16 0;
#X connect 76 3 17 0;
#X connect 76 4 18 0;
#X connect 78 0 81 0;
#X connect 79 0 78 0;
#X connect 80 0 81 0;
#X connect 81 0 87 0;
#X connect 81 1 84 0;
#X connect 81 2 71 0;
#X connect 82 0 86 0;
#X connect 83 0 73 4;
#X connect 83 1 73 3;
#X connect 83 2 73 2;
#X connect 83 3 73 1;
#X connect 83 4 89 1;
#X connect 84 0 72 0;
#X connect 85 0 84 0;
#X connect 86 0 79 0;
#X connect 87 0 88 0;
#X connect 88 0 89 0;
#X connect 89 0 73 0;
#X connect 90 0 71 1;
#X connect 91 0 9 0;
#X connect 92 0 33 0;
#X connect 93 0 63 0;
#X connect 94 0 95 0;
#X connect 95 0 86 0;
#X connect 95 1 90 0;
#X connect 97 0 100 1;
#X connect 98 0 100 1;
#X connect 100 0 101 1;
#X connect 101 0 112 0;
#X connect 102 0 104 0;
#X connect 103 0 106 0;
#X connect 104 0 114 0;
#X connect 104 1 103 0;
#X connect 104 1 105 0;
#X connect 105 0 14 0;
#X connect 105 1 15 0;
#X connect 105 2 16 0;
#X connect 105 3 17 0;
#X connect 105 4 18 0;
#X connect 107 0 110 0;
#X connect 108 0 107 0;
#X connect 109 0 110 0;
#X connect 110 0 116 0;
#X connect 110 1 113 0;
#X connect 110 2 100 0;
#X connect 111 0 115 0;
#X connect 112 0 102 4;
#X connect 112 1 102 3;
#X connect 112 2 102 2;
#X connect 112 3 102 1;
#X connect 112 4 118 1;
#X connect 113 0 101 0;
#X connect 114 0 113 0;
#X connect 115 0 108 0;
#X connect 116 0 117 0;
#X connect 117 0 118 0;
#X connect 118 0 102 0;
#X connect 119 0 124 0;
#X connect 121 0 123 0;
#X connect 123 0 115 0;
#X connect 123 1 98 0;
#X connect 123 2 122 0;
#X connect 124 0 115 0;
#X connect 124 1 97 0;
#X connect 124 2 122 0;
#X restore 572 180 pd randomScaleGenerator;
#X obj 1361 168 r majorMinor;
#X obj 1361 194 tgl 15 0 empty empty empty 17 7 0 10 -262144 -1 -1
1 1;
#X text 1381 192 0 is minor \, 1 is major;
#X text 930 71 1 = dorian;
#X text 930 94 2 = phrygian;
#X text 931 118 3 = lydian;
#X text 931 141 4 = mixolydian;
#X text 932 166 5 = aeolian (natural minor);
#X text 933 190 6 = locrian;
#X text 934 218 7 = harmonic minor;
#X text 933 245 8 = melodic minor (descent);
#X text 930 49 0 = ionian (major);
#X text 213 58 random 12-note;
#X text 343 58 random octatonic symmetric;
#X text 551 59 random pentatonic;
#X text 780 44 piano scales;
#X obj 781 66 hradio 15 1 0 9 empty empty empty 0 -8 0 10 -262144 -1
-1 8;
#X obj 219 83 bng 15 250 50 0 empty empty empty 17 7 0 10 -262144 -1
-1;
#X obj 347 79 bng 15 250 50 0 empty empty empty 17 7 0 10 -262144 -1
-1;
#X obj 555 79 bng 15 250 50 0 empty empty empty 17 7 0 10 -262144 -1
-1;
#N canvas 510 150 450 300 keyNote 0;
#X text 23 23 lowest possible note is 21;
#X text 25 40 21 - 32;
#X obj 120 113 + 21;
#X obj 120 89 random 12;
#X obj 120 137 s keyNote;
#X obj 120 63 inlet;
#X connect 2 0 4 0;
#X connect 3 0 2 0;
#X connect 5 0 3 0;
#X restore 1219 174 pd keyNote;
#X obj 1220 136 bng 15 250 50 0 empty empty empty 17 7 0 10 -262144
-1 -1;
#N canvas 0 23 1427 828 keynoteAndOctaves 0;
#X obj 117 534 inlet;
#X obj 165 535 r keyNote;
#X obj 118 571 +;
#X text 1144 19 21 - 32;
#X text 1144 43 32 + 72 = 104;
#X obj 560 56 moses 24;
#X obj 484 220 listSerialise;
#X obj 436 275 pack f f;
#X obj 415 373 pack f f f f f;
#X msg 489 423 set \$1 \$2 \$3 \$4 \$5;
#X obj 415 397 t b a;
#X obj 447 447 unpack f f f f f;
#X msg 489 483 48 24 12 36 0;
#X obj 441 150 until;
#X msg 441 124 5;
#X obj 417 171 bng 15 250 50 0 empty empty empty 17 7 0 10 -262144
-1 -1;
#X obj 441 174 t b b b;
#X obj 452 96 t b b;
#X obj 436 303 route 0 1 2 3 4;
#X obj 436 246 c_urn 5;
#X obj 547 279 bng 15 250 50 0 empty empty empty 17 7 0 10 -262144
-1 -1;
#X msg 416 219 clear;
#X obj 423 346 f;
#X obj 364 279 EPcount 5;
#X obj 364 303 sel 5;
#X text 1146 66 24 + 84 = 108;
#X obj 780 212 listSerialise;
#X obj 732 267 pack f f;
#X obj 711 365 pack f f f f f;
#X msg 785 415 set \$1 \$2 \$3 \$4 \$5;
#X obj 711 389 t b a;
#X obj 743 439 unpack f f f f f;
#X msg 785 475 48 36 24 0 12;
#X obj 737 142 until;
#X msg 737 116 5;
#X obj 713 163 bng 15 250 50 0 empty empty empty 17 7 0 10 -262144
-1 -1;
#X obj 737 166 t b b b;
#X obj 748 88 t b b;
#X obj 732 295 route 0 1 2 3 4;
#X obj 732 238 c_urn 5;
#X msg 712 211 clear;
#X obj 719 338 f;
#X obj 660 271 EPcount 5;
#X obj 660 295 sel 5;
#X obj 118 600 +;
#X obj 118 626 outlet;
#X obj 310 535 inlet;
#X obj 359 535 r keyNote;
#X obj 312 571 +;
#X obj 312 600 +;
#X obj 312 626 outlet;
#X obj 521 535 inlet;
#X obj 570 535 r keyNote;
#X obj 523 571 +;
#X obj 523 600 +;
#X obj 523 626 outlet;
#X obj 715 535 inlet;
#X obj 764 535 r keyNote;
#X obj 717 571 +;
#X obj 717 600 +;
#X obj 717 626 outlet;
#X obj 915 535 inlet;
#X obj 964 535 r keyNote;
#X obj 917 571 +;
#X obj 917 600 +;
#X obj 917 626 outlet;
#X floatatom 507 38 5 0 0 0 - - -;
#X obj 560 14 r keyNote;
#X msg 813 165 0 12 24 36 48 60 72;
#X msg 508 174 0 12 24 36 48 60 72 84;
#X obj 1129 774 outlet;
#X obj 629 722 pack f f f f f;
#X connect 0 0 2 0;
#X connect 1 0 2 1;
#X connect 2 0 44 0;
#X connect 5 0 17 0;
#X connect 5 1 37 0;
#X connect 6 0 7 1;
#X connect 7 0 18 0;
#X connect 8 0 10 0;
#X connect 9 0 12 0;
#X connect 10 0 21 0;
#X connect 10 1 9 0;
#X connect 10 1 11 0;
#X connect 11 0 44 1;
#X connect 11 1 49 1;
#X connect 11 2 54 1;
#X connect 11 3 59 1;
#X connect 11 4 64 1;
#X connect 13 0 16 0;
#X connect 14 0 13 0;
#X connect 15 0 16 0;
#X connect 16 0 23 0;
#X connect 16 1 19 0;
#X connect 16 2 6 0;
#X connect 17 0 14 0;
#X connect 17 1 69 0;
#X connect 18 0 8 4;
#X connect 18 1 8 3;
#X connect 18 2 8 2;
#X connect 18 3 8 1;
#X connect 18 4 22 1;
#X connect 19 0 7 0;
#X connect 19 1 20 0;
#X connect 21 0 19 0;
#X connect 22 0 8 0;
#X connect 23 0 24 0;
#X connect 24 0 22 0;
#X connect 26 0 27 1;
#X connect 27 0 38 0;
#X connect 28 0 30 0;
#X connect 29 0 32 0;
#X connect 30 0 40 0;
#X connect 30 1 29 0;
#X connect 30 1 31 0;
#X connect 31 0 44 1;
#X connect 31 1 49 1;
#X connect 31 2 54 1;
#X connect 31 3 59 1;
#X connect 31 4 64 1;
#X connect 33 0 36 0;
#X connect 34 0 33 0;
#X connect 35 0 36 0;
#X connect 36 0 42 0;
#X connect 36 1 39 0;
#X connect 36 2 26 0;
#X connect 37 0 34 0;
#X connect 37 1 68 0;
#X connect 38 0 28 4;
#X connect 38 1 28 3;
#X connect 38 2 28 2;
#X connect 38 3 28 1;
#X connect 38 4 41 1;
#X connect 39 0 27 0;
#X connect 40 0 39 0;
#X connect 41 0 28 0;
#X connect 42 0 43 0;
#X connect 43 0 41 0;
#X connect 44 0 45 0;
#X connect 44 0 71 0;
#X connect 46 0 48 0;
#X connect 47 0 48 1;
#X connect 48 0 49 0;
#X connect 49 0 50 0;
#X connect 49 0 71 1;
#X connect 51 0 53 0;
#X connect 52 0 53 1;
#X connect 53 0 54 0;
#X connect 54 0 55 0;
#X connect 54 0 71 2;
#X connect 56 0 58 0;
#X connect 57 0 58 1;
#X connect 58 0 59 0;
#X connect 59 0 60 0;
#X connect 59 0 71 3;
#X connect 61 0 63 0;
#X connect 62 0 63 1;
#X connect 63 0 64 0;
#X connect 64 0 65 0;
#X connect 64 0 71 4;
#X connect 67 0 5 0;
#X connect 67 0 66 0;
#X connect 68 0 26 1;
#X connect 69 0 6 1;
#X connect 71 0 70 0;
#X restore 612 307 pd keynoteAndOctaves;
#X floatatom 198 361 5 0 0 0 - - -;
#X floatatom 245 361 5 0 0 0 - - -;
#X floatatom 289 361 5 0 0 0 - - -;
#X floatatom 336 361 5 0 0 0 - - -;
#X floatatom 381 362 5 0 0 0 - - -;
#X floatatom 781 86 5 0 0 0 - - -;
#X obj 572 204 t b b;
#X obj 593 264 del 5;
#N canvas 0 23 2227 1712 chordPlayer5 0;
#X obj 162 394 soloNotePiano;
#X obj 158 300 timeHumaniser;
#X obj 161 451 *~;
#X obj 161 361 f;
#X obj 158 324 t b b;
#X obj 323 394 soloNotePiano;
#X obj 320 300 timeHumaniser;
#X obj 323 451 *~;
#X obj 323 361 f;
#X obj 320 324 t b b;
#X obj 485 394 soloNotePiano;
#X obj 482 300 timeHumaniser;
#X obj 485 451 *~;
#X obj 485 361 f;
#X obj 482 324 t b b;
#X obj 643 393 soloNotePiano;
#X obj 640 300 timeHumaniser;
#X obj 643 451 *~;
#X obj 643 361 f;
#X obj 640 324 t b b;
#X obj 804 394 soloNotePiano;
#X obj 801 300 timeHumaniser;
#X obj 804 451 *~;
#X obj 804 361 f;
#X obj 801 324 t b b;
#X obj 221 421 volhumaniser;
#X obj 383 421 volhumaniser;
#X obj 545 420 volhumaniser;
#X obj 703 421 volhumaniser;
#X obj 864 421 volhumaniser;
#X obj 158 270 t b f b;
#X obj 320 270 t b f b;
#X obj 482 270 t b f b;
#X obj 640 270 t b f b;
#X obj 800 270 t b f b;
#X obj 474 30 inlet;
#X obj 474 54 unpack f f f f f;
#X obj 418 521 outlet~;
#X connect 0 0 2 0;
#X connect 1 0 4 0;
#X connect 2 0 37 0;
#X connect 3 0 0 0;
#X connect 4 0 25 0;
#X connect 4 1 3 0;
#X connect 5 0 7 0;
#X connect 6 0 9 0;
#X connect 7 0 37 0;
#X connect 8 0 5 0;
#X connect 9 0 26 0;
#X connect 9 1 8 0;
#X connect 10 0 12 0;
#X connect 11 0 14 0;
#X connect 12 0 37 0;
#X connect 13 0 10 0;
#X connect 14 0 27 0;
#X connect 14 1 13 0;
#X connect 15 0 17 0;
#X connect 16 0 19 0;
#X connect 17 0 37 0;
#X connect 18 0 15 0;
#X connect 19 0 28 0;
#X connect 19 1 18 0;
#X connect 20 0 22 0;
#X connect 21 0 24 0;
#X connect 22 0 37 0;
#X connect 23 0 20 0;
#X connect 24 0 29 0;
#X connect 24 1 23 0;
#X connect 25 0 2 1;
#X connect 26 0 7 1;
#X connect 27 0 12 1;
#X connect 28 0 17 1;
#X connect 29 0 22 1;
#X connect 30 0 1 0;
#X connect 30 1 3 1;
#X connect 31 0 6 0;
#X connect 31 1 8 1;
#X connect 32 0 11 0;
#X connect 32 1 13 1;
#X connect 33 0 16 0;
#X connect 33 1 18 1;
#X connect 34 0 21 0;
#X connect 34 1 23 1;
#X connect 35 0 36 0;
#X connect 36 0 30 0;
#X connect 36 1 31 0;
#X connect 36 2 32 0;
#X connect 36 3 33 0;
#X connect 36 4 34 0;
#X restore 407 597 pd chordPlayer5;
#N canvas 0 23 1144 603 chordPlayer5 0;
#X obj 161 394 soloNotePiano;
#X obj 158 300 timeHumaniser;
#X obj 161 451 *~;
#X obj 161 361 f;
#X obj 158 324 t b b;
#X obj 323 394 soloNotePiano;
#X obj 320 300 timeHumaniser;
#X obj 323 451 *~;
#X obj 323 361 f;
#X obj 320 324 t b b;
#X obj 485 394 soloNotePiano;
#X obj 482 300 timeHumaniser;
#X obj 485 451 *~;
#X obj 485 361 f;
#X obj 482 324 t b b;
#X obj 643 394 soloNotePiano;
#X obj 640 300 timeHumaniser;
#X obj 643 451 *~;
#X obj 643 361 f;
#X obj 640 324 t b b;
#X obj 804 394 soloNotePiano;
#X obj 801 300 timeHumaniser;
#X obj 804 451 *~;
#X obj 804 361 f;
#X obj 801 324 t b b;
#X obj 221 421 volhumaniser;
#X obj 383 421 volhumaniser;
#X obj 545 420 volhumaniser;
#X obj 703 421 volhumaniser;
#X obj 864 421 volhumaniser;
#X obj 158 270 t b f b;
#X obj 320 270 t b f b;
#X obj 482 270 t b f b;
#X obj 640 270 t b f b;
#X obj 800 270 t b f b;
#X obj 474 30 inlet;
#X obj 474 54 unpack f f f f f;
#X obj 418 521 outlet~;
#X connect 0 0 2 0;
#X connect 1 0 4 0;
#X connect 2 0 37 0;
#X connect 3 0 0 0;
#X connect 4 0 25 0;
#X connect 4 1 3 0;
#X connect 5 0 7 0;
#X connect 6 0 9 0;
#X connect 7 0 37 0;
#X connect 8 0 5 0;
#X connect 9 0 26 0;
#X connect 9 1 8 0;
#X connect 10 0 12 0;
#X connect 11 0 14 0;
#X connect 12 0 37 0;
#X connect 13 0 10 0;
#X connect 14 0 27 0;
#X connect 14 1 13 0;
#X connect 15 0 17 0;
#X connect 16 0 19 0;
#X connect 17 0 37 0;
#X connect 18 0 15 0;
#X connect 19 0 28 0;
#X connect 19 1 18 0;
#X connect 20 0 22 0;
#X connect 21 0 24 0;
#X connect 22 0 37 0;
#X connect 23 0 20 0;
#X connect 24 0 29 0;
#X connect 24 1 23 0;
#X connect 25 0 2 1;
#X connect 26 0 7 1;
#X connect 27 0 12 1;
#X connect 28 0 17 1;
#X connect 29 0 22 1;
#X connect 30 0 1 0;
#X connect 30 1 3 1;
#X connect 31 0 6 0;
#X connect 31 1 8 1;
#X connect 32 0 11 0;
#X connect 32 1 13 1;
#X connect 33 0 16 0;
#X connect 33 1 18 1;
#X connect 34 0 21 0;
#X connect 34 1 23 1;
#X connect 35 0 36 0;
#X connect 36 0 30 0;
#X connect 36 1 31 0;
#X connect 36 2 32 0;
#X connect 36 3 33 0;
#X connect 36 4 34 0;
#X restore 587 597 pd chordPlayer5;
#N canvas 0 23 1144 603 chordPlayer5 0;
#X obj 161 394 soloNotePiano;
#X obj 158 300 timeHumaniser;
#X obj 161 451 *~;
#X obj 161 361 f;
#X obj 158 324 t b b;
#X obj 323 394 soloNotePiano;
#X obj 320 300 timeHumaniser;
#X obj 323 451 *~;
#X obj 323 361 f;
#X obj 320 324 t b b;
#X obj 485 394 soloNotePiano;
#X obj 482 300 timeHumaniser;
#X obj 485 451 *~;
#X obj 485 361 f;
#X obj 482 324 t b b;
#X obj 643 394 soloNotePiano;
#X obj 640 300 timeHumaniser;
#X obj 643 451 *~;
#X obj 643 361 f;
#X obj 640 324 t b b;
#X obj 804 394 soloNotePiano;
#X obj 801 300 timeHumaniser;
#X obj 804 451 *~;
#X obj 804 361 f;
#X obj 801 324 t b b;
#X obj 221 421 volhumaniser;
#X obj 383 421 volhumaniser;
#X obj 545 420 volhumaniser;
#X obj 703 421 volhumaniser;
#X obj 864 421 volhumaniser;
#X obj 158 270 t b f b;
#X obj 320 270 t b f b;
#X obj 482 270 t b f b;
#X obj 640 270 t b f b;
#X obj 800 270 t b f b;
#X obj 474 30 inlet;
#X obj 474 54 unpack f f f f f;
#X obj 418 521 outlet~;
#X connect 0 0 2 0;
#X connect 1 0 4 0;
#X connect 2 0 37 0;
#X connect 3 0 0 0;
#X connect 4 0 25 0;
#X connect 4 1 3 0;
#X connect 5 0 7 0;
#X connect 6 0 9 0;
#X connect 7 0 37 0;
#X connect 8 0 5 0;
#X connect 9 0 26 0;
#X connect 9 1 8 0;
#X connect 10 0 12 0;
#X connect 11 0 14 0;
#X connect 12 0 37 0;
#X connect 13 0 10 0;
#X connect 14 0 27 0;
#X connect 14 1 13 0;
#X connect 15 0 17 0;
#X connect 16 0 19 0;
#X connect 17 0 37 0;
#X connect 18 0 15 0;
#X connect 19 0 28 0;
#X connect 19 1 18 0;
#X connect 20 0 22 0;
#X connect 21 0 24 0;
#X connect 22 0 37 0;
#X connect 23 0 20 0;
#X connect 24 0 29 0;
#X connect 24 1 23 0;
#X connect 25 0 2 1;
#X connect 26 0 7 1;
#X connect 27 0 12 1;
#X connect 28 0 17 1;
#X connect 29 0 22 1;
#X connect 30 0 1 0;
#X connect 30 1 3 1;
#X connect 31 0 6 0;
#X connect 31 1 8 1;
#X connect 32 0 11 0;
#X connect 32 1 13 1;
#X connect 33 0 16 0;
#X connect 33 1 18 1;
#X connect 34 0 21 0;
#X connect 34 1 23 1;
#X connect 35 0 36 0;
#X connect 36 0 30 0;
#X connect 36 1 31 0;
#X connect 36 2 32 0;
#X connect 36 3 33 0;
#X connect 36 4 34 0;
#X restore 780 597 pd chordPlayer5;
#N canvas 0 23 1144 603 chordPlayer5 0;
#X obj 161 394 soloNotePiano;
#X obj 158 300 timeHumaniser;
#X obj 161 451 *~;
#X obj 161 361 f;
#X obj 158 324 t b b;
#X obj 323 394 soloNotePiano;
#X obj 320 300 timeHumaniser;
#X obj 323 451 *~;
#X obj 323 361 f;
#X obj 320 324 t b b;
#X obj 485 394 soloNotePiano;
#X obj 482 300 timeHumaniser;
#X obj 485 451 *~;
#X obj 485 361 f;
#X obj 482 324 t b b;
#X obj 643 394 soloNotePiano;
#X obj 640 300 timeHumaniser;
#X obj 643 451 *~;
#X obj 643 361 f;
#X obj 640 324 t b b;
#X obj 804 394 soloNotePiano;
#X obj 801 300 timeHumaniser;
#X obj 804 451 *~;
#X obj 804 361 f;
#X obj 801 324 t b b;
#X obj 221 421 volhumaniser;
#X obj 383 421 volhumaniser;
#X obj 545 420 volhumaniser;
#X obj 703 421 volhumaniser;
#X obj 864 421 volhumaniser;
#X obj 158 270 t b f b;
#X obj 320 270 t b f b;
#X obj 482 270 t b f b;
#X obj 640 270 t b f b;
#X obj 800 270 t b f b;
#X obj 474 30 inlet;
#X obj 474 54 unpack f f f f f;
#X obj 418 521 outlet~;
#X connect 0 0 2 0;
#X connect 1 0 4 0;
#X connect 2 0 37 0;
#X connect 3 0 0 0;
#X connect 4 0 25 0;
#X connect 4 1 3 0;
#X connect 5 0 7 0;
#X connect 6 0 9 0;
#X connect 7 0 37 0;
#X connect 8 0 5 0;
#X connect 9 0 26 0;
#X connect 9 1 8 0;
#X connect 10 0 12 0;
#X connect 11 0 14 0;
#X connect 12 0 37 0;
#X connect 13 0 10 0;
#X connect 14 0 27 0;
#X connect 14 1 13 0;
#X connect 15 0 17 0;
#X connect 16 0 19 0;
#X connect 17 0 37 0;
#X connect 18 0 15 0;
#X connect 19 0 28 0;
#X connect 19 1 18 0;
#X connect 20 0 22 0;
#X connect 21 0 24 0;
#X connect 22 0 37 0;
#X connect 23 0 20 0;
#X connect 24 0 29 0;
#X connect 24 1 23 0;
#X connect 25 0 2 1;
#X connect 26 0 7 1;
#X connect 27 0 12 1;
#X connect 28 0 17 1;
#X connect 29 0 22 1;
#X connect 30 0 1 0;
#X connect 30 1 3 1;
#X connect 31 0 6 0;
#X connect 31 1 8 1;
#X connect 32 0 11 0;
#X connect 32 1 13 1;
#X connect 33 0 16 0;
#X connect 33 1 18 1;
#X connect 34 0 21 0;
#X connect 34 1 23 1;
#X connect 35 0 36 0;
#X connect 36 0 30 0;
#X connect 36 1 31 0;
#X connect 36 2 32 0;
#X connect 36 3 33 0;
#X connect 36 4 34 0;
#X restore 980 597 pd chordPlayer5;
#X obj 721 512 route 1 2 3 4;
#X obj 694 417 EPcount 4;
#X obj 721 463 list append;
#X obj 721 487 list trim;
#X obj 752 125 bng 15 250 50 0 empty empty empty 17 7 0 10 -262144
-1 -1;
#X text 771 124 quartal;
#X obj 796 159 bng 15 250 50 0 empty empty empty 17 7 0 10 -262144
-1 -1;
#X text 816 160 quintal;
#X obj 1189 92 r keyNoteTrig;
#N canvas 0 213 714 376 fade 0;
#X obj 147 66 inlet~;
#X obj 147 227 *~;
#X obj 147 251 outlet~;
#X obj 192 197 line~;
#X obj 236 101 random 6;
#X obj 236 125 + 2;
#X obj 236 149 * 100;
#X msg 236 172 0 \$1;
#X obj 213 37 t f f;
#X obj 213 64 sel 1 2;
#X text 83 306 If this note is selected \, volume up \, if next note
is selected \, fade at a different speed each time.;
#X msg 192 170 1 5;
#X obj 213 13 r whichPlayer;
#X connect 0 0 1 0;
#X connect 1 0 2 0;
#X connect 3 0 1 1;
#X connect 4 0 5 0;
#X connect 5 0 6 0;
#X connect 6 0 7 0;
#X connect 7 0 3 0;
#X connect 8 0 9 0;
#X connect 9 0 11 0;
#X connect 9 1 4 0;
#X connect 11 0 3 0;
#X connect 12 0 8 0;
#X restore 458 646 pd fade;
#X obj 635 464 s whichPlayer;
#X obj 694 438 t f f;
#N canvas 0 213 714 376 fade 0;
#X obj 147 66 inlet~;
#X obj 147 227 *~;
#X obj 147 251 outlet~;
#X obj 192 197 line~;
#X obj 236 101 random 6;
#X obj 236 125 + 2;
#X obj 236 149 * 100;
#X msg 236 172 0 \$1;
#X obj 213 37 t f f;
#X text 83 306 If this note is selected \, volume up \, if next note
is selected \, fade at a different speed each time.;
#X msg 192 170 1 5;
#X obj 213 13 r whichPlayer;
#X obj 213 64 sel 2 3;
#X connect 0 0 1 0;
#X connect 1 0 2 0;
#X connect 3 0 1 1;
#X connect 4 0 5 0;
#X connect 5 0 6 0;
#X connect 6 0 7 0;
#X connect 7 0 3 0;
#X connect 8 0 12 0;
#X connect 10 0 3 0;
#X connect 11 0 8 0;
#X connect 12 0 10 0;
#X connect 12 1 4 0;
#X restore 604 646 pd fade;
#N canvas 0 213 714 376 fade 0;
#X obj 147 66 inlet~;
#X obj 147 227 *~;
#X obj 147 251 outlet~;
#X obj 192 197 line~;
#X obj 236 101 random 6;
#X obj 236 125 + 2;
#X obj 236 149 * 100;
#X msg 236 172 0 \$1;
#X obj 213 37 t f f;
#X text 83 306 If this note is selected \, volume up \, if next note
is selected \, fade at a different speed each time.;
#X msg 192 170 1 5;
#X obj 213 13 r whichPlayer;
#X obj 213 64 sel 3 4;
#X connect 0 0 1 0;
#X connect 1 0 2 0;
#X connect 3 0 1 1;
#X connect 4 0 5 0;
#X connect 5 0 6 0;
#X connect 6 0 7 0;
#X connect 7 0 3 0;
#X connect 8 0 12 0;
#X connect 10 0 3 0;
#X connect 11 0 8 0;
#X connect 12 0 10 0;
#X connect 12 1 4 0;
#X restore 773 646 pd fade;
#N canvas 0 213 714 376 fade 0;
#X obj 147 66 inlet~;
#X obj 147 227 *~;
#X obj 147 251 outlet~;
#X obj 192 197 line~;
#X obj 236 101 random 6;
#X obj 236 125 + 2;
#X obj 236 149 * 100;
#X msg 236 172 0 \$1;
#X obj 213 37 t f f;
#X text 83 306 If this note is selected \, volume up \, if next note
is selected \, fade at a different speed each time.;
#X msg 192 170 1 5;
#X obj 213 13 r whichPlayer;
#X obj 213 64 sel 4 1;
#X connect 0 0 1 0;
#X connect 1 0 2 0;
#X connect 3 0 1 1;
#X connect 4 0 5 0;
#X connect 5 0 6 0;
#X connect 6 0 7 0;
#X connect 7 0 3 0;
#X connect 8 0 12 0;
#X connect 10 0 3 0;
#X connect 11 0 8 0;
#X connect 12 0 10 0;
#X connect 12 1 4 0;
#X restore 919 646 pd fade;
#X obj 680 799 outlet~;
#X obj 735 799 outlet~;
#X obj 218 105 r c;
#X obj 347 103 r v;
#X obj 554 103 r b;
#X obj 683 101 r n;
#X obj 715 101 r m;
#X obj 683 44 r scaleKeys;
#N canvas 0 23 1055 560 damper 0;
#X obj 554 142 r damper;
#X msg 554 248 0 \$1;
#X obj 554 174 random 10;
#X obj 554 225 * 100;
#X obj 554 275 line~;
#X obj 554 318 outlet~;
#X obj 662 142 r damperOn;
#X msg 662 163 1 2;
#X obj 554 195 + 3;
#X connect 0 0 2 0;
#X connect 1 0 4 0;
#X connect 2 0 8 0;
#X connect 3 0 1 0;
#X connect 4 0 5 0;
#X connect 6 0 7 0;
#X connect 7 0 4 0;
#X connect 8 0 3 0;
#X restore 766 728 pd damper;
#X obj 776 374 t b a b;
#X obj 859 405 s damperOn;
#X obj 690 768 *~;
#X obj 722 768 *~;
#X obj 213 211 receive test;
#X connect 1 0 0 0;
#X connect 2 0 3 0;
#X connect 3 2 29 0;
#X connect 3 3 5 0;
#X connect 3 4 4 0;
#X connect 6 0 3 0;
#X connect 7 0 70 0;
#X connect 7 1 71 0;
#X connect 8 0 38 0;
#X connect 8 1 31 1;
#X connect 8 2 31 2;
#X connect 8 3 31 3;
#X connect 8 4 31 4;
#X connect 9 0 10 0;
#X connect 25 0 8 3;
#X connect 25 0 37 0;
#X connect 26 0 8 0;
#X connect 27 0 8 1;
#X connect 28 0 8 2;
#X connect 30 0 29 0;
#X connect 31 0 32 0;
#X connect 31 1 33 0;
#X connect 31 2 34 0;
#X connect 31 3 35 0;
#X connect 31 4 36 0;
#X connect 31 5 68 0;
#X connect 38 0 39 0;
#X connect 39 0 31 0;
#X connect 40 0 53 0;
#X connect 41 0 56 0;
#X connect 42 0 57 0;
#X connect 43 0 58 0;
#X connect 44 0 40 0;
#X connect 44 1 41 0;
#X connect 44 2 42 0;
#X connect 44 3 43 0;
#X connect 45 0 55 0;
#X connect 46 0 47 0;
#X connect 47 0 44 0;
#X connect 48 0 8 4;
#X connect 50 0 8 5;
#X connect 52 0 29 0;
#X connect 53 0 7 0;
#X connect 55 0 54 0;
#X connect 55 1 46 0;
#X connect 56 0 7 0;
#X connect 57 0 7 0;
#X connect 58 0 7 0;
#X connect 61 0 8 0;
#X connect 62 0 8 1;
#X connect 63 0 8 2;
#X connect 64 0 8 4;
#X connect 65 0 8 5;
#X connect 66 0 8 3;
#X connect 67 0 71 1;
#X connect 68 0 45 0;
#X connect 68 1 46 1;
#X connect 68 2 69 0;
#X connect 70 0 59 0;
#X connect 71 0 60 0;
#X connect 72 0 8 1;
#X restore 412 375 pd workings;
#N canvas 0 23 2196 1451 keys 0;
#X obj 321 73 key;
#X floatatom 510 91 5 0 0 0 - - -;
#X obj 320 114 sel 99 118 98 110 109;
#X obj 308 155 s c;
#X obj 342 155 s v;
#X obj 379 155 s b;
#X obj 413 155 s n;
#X obj 450 155 s m;
#X obj 519 128 sel 49 50 51 52 53 54 55 56 57;
#X msg 509 174 0;
#X msg 539 174 1;
#X msg 569 174 2;
#X msg 599 174 3;
#X msg 626 174 4;
#X msg 657 174 5;
#X msg 687 174 6;
#X msg 719 174 7;
#X msg 749 174 8;
#X obj 562 225 s scaleKeys;
#X obj 826 127 s keyNoteTrig;
#X obj 849 154 s damper;
#X obj 826 106 sel 32 8;
#X connect 0 0 1 0;
#X connect 0 0 2 0;
#X connect 2 0 3 0;
#X connect 2 1 4 0;
#X connect 2 2 5 0;
#X connect 2 3 6 0;
#X connect 2 4 7 0;
#X connect 2 5 8 0;
#X connect 8 0 9 0;
#X connect 8 1 10 0;
#X connect 8 2 11 0;
#X connect 8 3 12 0;
#X connect 8 4 13 0;
#X connect 8 5 14 0;
#X connect 8 6 15 0;
#X connect 8 7 16 0;
#X connect 8 8 17 0;
#X connect 8 9 21 0;
#X connect 9 0 18 0;
#X connect 10 0 18 0;
#X connect 11 0 18 0;
#X connect 12 0 18 0;
#X connect 13 0 18 0;
#X connect 14 0 18 0;
#X connect 15 0 18 0;
#X connect 16 0 18 0;
#X connect 17 0 18 0;
#X connect 21 0 19 0;
#X connect 21 1 20 0;
#X restore 419 334 pd keys;
#X text 125 84 random 12-note;
#X text 123 115 random octatonic symmetric;
#X text 126 149 random pentatonic;
#X text 127 178 quartal;
#X text 126 207 quintal;
#X text 92 85 c;
#X text 92 117 v;
#X text 94 148 b;
#X text 94 178 n;
#X text 94 206 m;
#X text 94 250 delete = damper;
#X text 122 27 PRESS THE FOLLOWING KEYS TO HEAR CHORDS MADE FROM THE
FOLLOWING SCALE COLLECTIONS:;
#X text 426 68 1 = ionian (major);
#X text 426 90 2 = dorian;
#X text 426 113 3 = phrygian;
#X text 427 137 4 = lydian;
#X text 427 160 5 = mixolydian;
#X text 428 185 6 = aeolian (natural minor);
#X text 429 209 7 = locrian;
#X text 430 237 8 = harmonic minor;
#X text 429 264 9 = melodic minor (descent);
#X text 95 268 space bar changes key;
#X text 94 290 (except quartel and quintal chords automatically change
the key as well).;
#X connect 1 0 2 1;
#X connect 1 0 3 1;
#X connect 2 0 0 0;
#X connect 3 0 0 1;
#X connect 4 0 2 0;
#X connect 4 1 3 0;
