#N canvas 0 23 1906 1159 10;
#X obj 324 404 outlet~;
#X obj 258 404 outlet~;
#X obj 290 69 inlet~;
#X obj 356 69 delread~ \$0-pianoWide 2;
#X obj 116 111 delwrite~ \$0-pianoWide 1;
#X obj 232 314 rev3~ 10 10 500 10;
#X connect 2 0 1 0;
#X connect 2 0 0 0;
#X connect 2 0 4 0;
#X connect 2 0 5 0;
#X connect 3 0 0 0;
#X connect 3 0 5 1;
#X connect 5 0 1 0;
#X connect 5 1 0 0;
