#N canvas 0 23 1664 841 10;
#X obj 13 491 piano_loader 62;
#X obj 112 491 piano_loader 63;
#X obj 387 89 f;
#X obj 387 111 + 1;
#X msg 360 15 0;
#X obj 360 37 t f f;
#X obj 404 185 pack f f;
#X obj 187 456 route 62 63 64 65 66 67 68 69 70 71 72 73 74;
#X obj 680 454 route 75 76 77 78 79 80 81 82 83 84 85 86;
#X obj 213 491 piano_loader 64;
#X obj 318 491 piano_loader 65;
#X obj 24 519 piano_loader 66;
#X obj 126 519 piano_loader 67;
#X obj 228 519 piano_loader 68;
#X obj 327 519 piano_loader 69;
#X obj -2 550 piano_loader 70;
#X obj 96 550 piano_loader 71;
#X obj 194 550 piano_loader 72;
#X obj 292 550 piano_loader 73;
#X obj 391 550 piano_loader 74;
#X obj 496 505 piano_loader 75;
#X obj 595 505 piano_loader 76;
#X obj 696 505 piano_loader 77;
#X obj 801 505 piano_loader 78;
#X obj 508 528 piano_loader 79;
#X obj 611 528 piano_loader 80;
#X obj 712 528 piano_loader 81;
#X obj 811 528 piano_loader 82;
#X obj 493 550 piano_loader 83;
#X obj 591 550 piano_loader 84;
#X obj 689 550 piano_loader 85;
#X obj 788 551 piano_loader 86;
#X obj 401 628 soundfiler;
#X obj 411 15 inlet;
#X obj 387 159 t f f f f;
#X obj 922 507 route 87 88 89 90 91 92 93 94 95 96 97 98 99 100;
#X obj 916 563 piano_loader 87;
#X obj 1015 563 piano_loader 88;
#X obj 1116 563 piano_loader 89;
#X obj 1221 563 piano_loader 90;
#X obj 1319 564 piano_loader 91;
#X obj 910 590 piano_loader 92;
#X obj 1011 590 piano_loader 93;
#X obj 1110 590 piano_loader 94;
#X obj 1213 591 piano_loader 95;
#X obj 1314 591 piano_loader 96;
#X obj 894 621 piano_loader 97;
#X obj 993 622 piano_loader 98;
#X obj 1099 621 piano_loader 99;
#X obj 1198 622 piano_loader 100;
#X obj 401 593 r toSoundfiler;
#X obj 25 223 route 21 22 23 24 25 26 27 28 29 30 31;
#X obj 449 220 route 32 33 34 35 36 37 38 39 40 41;
#X obj 905 221 route 42 43 44 45 46 47 48 49 50 51;
#X obj -17 266 piano_loader 21;
#X obj 82 266 piano_loader 22;
#X obj 183 266 piano_loader 23;
#X obj 285 266 piano_loader 24;
#X obj -14 290 piano_loader 25;
#X obj 88 290 piano_loader 26;
#X obj 292 288 piano_loader 28;
#X obj -9 315 piano_loader 29;
#X obj 89 315 piano_loader 30;
#X obj 190 290 piano_loader 27;
#X obj 190 316 piano_loader 31;
#X obj 398 263 piano_loader 32;
#X obj 497 263 piano_loader 33;
#X obj 598 263 piano_loader 34;
#X obj 700 263 piano_loader 35;
#X obj 401 287 piano_loader 36;
#X obj 503 287 piano_loader 37;
#X obj 605 287 piano_loader 38;
#X obj 707 285 piano_loader 39;
#X obj 406 312 piano_loader 40;
#X obj 504 312 piano_loader 41;
#X obj 864 259 piano_loader 42;
#X obj 963 259 piano_loader 43;
#X obj 1064 259 piano_loader 44;
#X obj 1166 259 piano_loader 45;
#X obj 867 283 piano_loader 46;
#X obj 969 283 piano_loader 47;
#X obj 1071 283 piano_loader 48;
#X obj 1173 281 piano_loader 49;
#X obj 872 307 piano_loader 50;
#X obj 970 308 piano_loader 51;
#X obj 652 321 route 52 53 54 55 56 57 58 59 60 61;
#X obj 570 368 piano_loader 52;
#X obj 669 368 piano_loader 53;
#X obj 770 367 piano_loader 54;
#X obj 872 368 piano_loader 55;
#X obj 573 392 piano_loader 56;
#X obj 675 392 piano_loader 57;
#X obj 777 392 piano_loader 58;
#X obj 879 390 piano_loader 59;
#X obj 578 416 piano_loader 60;
#X obj 676 417 piano_loader 61;
#X obj 387 133 + 20;
#X obj 1153 413 piano_loader 101;
#X obj 1169 440 piano_loader 102;
#X obj 1208 465 piano_loader 103;
#X obj 1270 411 piano_loader 104;
#X obj 1291 436 piano_loader 105;
#X obj 1330 462 piano_loader 106;
#X obj 1397 415 piano_loader 107;
#X obj 1443 448 piano_loader 108;
#X obj 1150 368 route 101 102 103 104 105 106 107 108;
#X obj 235 23 sel 109;
#X obj 387 61 metro 2;
#X connect 2 0 3 0;
#X connect 3 0 2 1;
#X connect 3 0 96 0;
#X connect 4 0 5 0;
#X connect 5 0 2 1;
#X connect 5 1 107 0;
#X connect 6 0 51 0;
#X connect 7 0 0 0;
#X connect 7 1 1 0;
#X connect 7 2 9 0;
#X connect 7 3 10 0;
#X connect 7 4 11 0;
#X connect 7 5 12 0;
#X connect 7 6 13 0;
#X connect 7 7 14 0;
#X connect 7 8 15 0;
#X connect 7 9 16 0;
#X connect 7 10 17 0;
#X connect 7 11 18 0;
#X connect 7 12 19 0;
#X connect 7 13 8 0;
#X connect 8 0 20 0;
#X connect 8 1 21 0;
#X connect 8 2 22 0;
#X connect 8 3 23 0;
#X connect 8 4 24 0;
#X connect 8 5 25 0;
#X connect 8 6 26 0;
#X connect 8 7 27 0;
#X connect 8 8 28 0;
#X connect 8 9 29 0;
#X connect 8 10 30 0;
#X connect 8 11 31 0;
#X connect 8 12 35 0;
#X connect 33 0 107 0;
#X connect 34 0 106 0;
#X connect 34 1 6 0;
#X connect 34 2 6 1;
#X connect 35 0 36 0;
#X connect 35 1 37 0;
#X connect 35 2 38 0;
#X connect 35 3 39 0;
#X connect 35 4 40 0;
#X connect 35 5 41 0;
#X connect 35 6 42 0;
#X connect 35 7 43 0;
#X connect 35 8 44 0;
#X connect 35 9 45 0;
#X connect 35 10 46 0;
#X connect 35 11 47 0;
#X connect 35 12 48 0;
#X connect 35 13 49 0;
#X connect 35 14 105 0;
#X connect 50 0 32 0;
#X connect 51 0 54 0;
#X connect 51 1 55 0;
#X connect 51 2 56 0;
#X connect 51 3 57 0;
#X connect 51 4 58 0;
#X connect 51 5 59 0;
#X connect 51 6 63 0;
#X connect 51 7 60 0;
#X connect 51 8 61 0;
#X connect 51 9 62 0;
#X connect 51 10 64 0;
#X connect 51 11 52 0;
#X connect 52 0 65 0;
#X connect 52 1 66 0;
#X connect 52 2 67 0;
#X connect 52 3 68 0;
#X connect 52 4 69 0;
#X connect 52 5 70 0;
#X connect 52 6 71 0;
#X connect 52 7 72 0;
#X connect 52 8 73 0;
#X connect 52 9 74 0;
#X connect 52 10 53 0;
#X connect 53 0 75 0;
#X connect 53 1 76 0;
#X connect 53 2 77 0;
#X connect 53 3 78 0;
#X connect 53 4 79 0;
#X connect 53 5 80 0;
#X connect 53 6 81 0;
#X connect 53 7 82 0;
#X connect 53 8 83 0;
#X connect 53 9 84 0;
#X connect 53 10 85 0;
#X connect 85 0 86 0;
#X connect 85 1 87 0;
#X connect 85 2 88 0;
#X connect 85 3 89 0;
#X connect 85 4 90 0;
#X connect 85 5 91 0;
#X connect 85 6 92 0;
#X connect 85 7 93 0;
#X connect 85 8 94 0;
#X connect 85 9 95 0;
#X connect 85 10 7 0;
#X connect 96 0 34 0;
#X connect 105 0 97 0;
#X connect 105 1 98 0;
#X connect 105 2 99 0;
#X connect 105 3 100 0;
#X connect 105 4 101 0;
#X connect 105 5 102 0;
#X connect 105 6 103 0;
#X connect 105 7 104 0;
#X connect 106 0 4 0;
#X connect 107 0 2 0;
