#N canvas 823 269 2227 1476 12;
#X obj 173 83 inlet;
#X obj 176 536 outlet~;
#X obj 176 307 tabplay~;
#X msg 264 281 set \$1-piano;
#X obj 176 432 *~ 0.2;
#X obj 173 112 moses 1;
#X text 212 82 <-- midi note in;
#X obj 359 395 r globaldecay;
#X obj 172 170 t b b b f;
#X obj 204 492 *~;
#X obj 252 395 r globalattack;
#X obj 240 461 ADenv 10 450;
#X connect 0 0 5 0;
#X connect 2 0 4 0;
#X connect 3 0 2 0;
#X connect 4 0 9 0;
#X connect 5 1 8 0;
#X connect 7 0 11 2;
#X connect 8 0 11 0;
#X connect 8 1 2 0;
#X connect 8 3 3 0;
#X connect 9 0 1 0;
#X connect 10 0 11 1;
#X connect 11 0 9 1;
