#N canvas 640 56 305 299 10;
#X obj 50 33 inlet;
#X obj 50 142 outlet;
#X obj 50 117 del;
#X text 79 116 suggest 40 ms;
#X obj 89 33 loadbang;
#X obj 50 92 random;
#X obj 89 54 \$1;
#X connect 0 0 5 0;
#X connect 2 0 1 0;
#X connect 4 0 6 0;
#X connect 5 0 2 0;
#X connect 6 0 5 1;
